<svg width="148" height="152" viewBox="0 0 148 152" fill="none" xmlns="http://www.w3.org/2000/svg">
<path d="M126.068 144.837C126.068 144.886 102.107 144.927 72.5592 144.927C43.0117 144.927 19.0404 144.886 19.0404 144.837C19.0404 144.789 42.9979 144.748 72.5592 144.748C102.12 144.748 126.068 144.793 126.068 144.837Z" fill="#302638"/>
<path d="M114.922 9.07358L113.145 9.70849L112.383 7.38624C110.982 3.10404 106.517 0.830099 102.414 2.2759C98.311 3.7217 96.1268 8.41797 97.5277 12.7002L98.2903 15.0224L96.5064 15.6608C95.8261 15.9246 95.2737 16.4405 94.964 17.1011C94.6542 17.7617 94.611 18.5163 94.8432 19.208L99.7879 34.3182C99.8905 34.6606 100.061 34.9789 100.289 35.2541C100.517 35.5294 100.798 35.756 101.116 35.9204C101.433 36.0849 101.78 36.1839 102.137 36.2116C102.493 36.2392 102.851 36.195 103.19 36.0814L121.606 29.4942C122.295 29.2308 122.856 28.7104 123.169 28.0424C123.482 27.3744 123.524 26.6109 123.286 25.9125L118.338 10.8023C118.233 10.4609 118.06 10.1441 117.83 9.87101C117.599 9.59788 117.316 9.37397 116.997 9.21262C116.679 9.05128 116.33 8.95582 115.974 8.93193C115.617 8.90804 115.26 8.95621 114.922 9.07358ZM100.885 11.489C100.507 10.3756 100.575 9.15915 101.074 8.0946C101.574 7.03004 102.465 6.19996 103.563 5.77826C104.105 5.59283 104.679 5.51848 105.25 5.55962C105.821 5.60077 106.378 5.75658 106.888 6.01775C107.398 6.27893 107.85 6.64011 108.217 7.07976C108.584 7.51941 108.859 8.02851 109.025 8.57669L109.784 10.8989L101.644 13.8113L100.885 11.489ZM111.237 24.898L112.5 28.7558C112.523 28.8332 112.516 28.9165 112.479 28.9884C112.442 29.0604 112.379 29.1155 112.303 29.1423L110.533 29.7737C110.463 29.7933 110.387 29.7848 110.323 29.75C110.259 29.7153 110.21 29.657 110.188 29.5874L108.915 25.7469C108.213 25.7086 107.539 25.4568 106.984 25.0251C106.429 24.5934 106.019 24.0025 105.809 23.3315C105.509 22.4443 105.564 21.4754 105.962 20.6277C106.36 19.78 107.071 19.1191 107.945 18.7836C108.377 18.6361 108.834 18.577 109.289 18.6099C109.744 18.6427 110.188 18.7669 110.594 18.9749C111 19.1829 111.36 19.4705 111.652 19.8206C111.945 20.1707 112.164 20.5761 112.296 21.0127C112.518 21.6943 112.537 22.426 112.349 23.1179C112.162 23.8099 111.776 24.4321 111.24 24.9084L111.237 24.898Z" fill="#007BFF"/>
<path d="M113.066 9.66712C113.066 9.71543 109.771 10.9542 105.671 12.4276C101.572 13.901 98.2283 15.0846 98.211 15.0501C98.1938 15.0155 101.506 13.7664 105.609 12.2896C109.712 10.8127 113.049 9.62226 113.066 9.66712Z" fill="#302638"/>
<path d="M116.979 10.302C116.994 10.3319 117.007 10.3631 117.017 10.3952C117.044 10.4642 117.075 10.5539 117.117 10.6643C117.207 10.9162 117.331 11.2647 117.486 11.6995L118.811 15.5573C119.363 17.1928 120.022 19.1321 120.754 21.2853C121.099 22.3653 121.506 23.4902 121.886 24.6737C122.089 25.2837 122.176 25.9261 122.144 26.5681C122.115 26.902 122.02 27.2269 121.865 27.5239C121.699 27.82 121.478 28.0813 121.213 28.2934C120.68 28.6826 120.088 28.9843 119.46 29.1871L117.683 29.8255L114.318 31.0298L108.621 33.0587L104.774 34.4113L103.739 34.7564L103.463 34.8461C103.433 34.8592 103.402 34.8674 103.37 34.8703C103.37 34.8703 103.397 34.8703 103.456 34.8289L103.725 34.7219L104.76 34.332L108.587 32.9241L114.274 30.8538L117.631 29.6392L119.408 28.9973C120.018 28.8027 120.593 28.5102 121.109 28.1312C121.356 27.9344 121.562 27.6919 121.716 27.417C121.863 27.1422 121.951 26.8404 121.975 26.5302C122.007 25.9115 121.923 25.2924 121.727 24.7048C121.354 23.5316 120.961 22.3964 120.605 21.3163C119.888 19.1597 119.225 17.2136 118.701 15.578C118.176 13.9424 117.734 12.6277 117.431 11.7029C117.286 11.2509 117.175 10.899 117.086 10.6436L117.003 10.3676C116.993 10.3467 116.984 10.3247 116.979 10.302Z" fill="#302638"/>
<path d="M107.262 5.54368C107.262 5.54368 107.079 5.45396 106.741 5.31594C106.259 5.13073 105.749 5.02808 105.233 5.01228C104.468 4.98605 103.707 5.12983 103.004 5.43326C102.149 5.81109 101.419 6.42222 100.896 7.19651C100.369 7.96859 100.086 8.881 100.085 9.81552C100.092 10.5815 100.208 11.3425 100.43 12.0757C100.609 12.7037 100.795 13.204 100.92 13.5525C100.993 13.7295 101.053 13.9118 101.099 14.0977C101.001 13.9322 100.919 13.7577 100.854 13.5767C100.713 13.2316 100.509 12.7416 100.309 12.1102C100.063 11.3693 99.9295 10.5959 99.9121 9.81552C99.9029 8.8457 100.192 7.89649 100.74 7.09645C101.281 6.29387 102.042 5.66384 102.931 5.28143C103.656 4.97634 104.441 4.84176 105.226 4.88806C105.753 4.91494 106.271 5.03771 106.755 5.25037C106.884 5.30999 107.008 5.37919 107.127 5.45741C107.176 5.47897 107.222 5.50808 107.262 5.54368Z" fill="#302638"/>
<path d="M107.421 19.0458C107.476 19.0124 107.533 18.9835 107.593 18.9595C107.766 18.8816 107.945 18.8181 108.128 18.7697C108.419 18.6839 108.719 18.6329 109.022 18.6179C109.434 18.5958 109.846 18.658 110.233 18.8008C111.116 19.1113 111.927 20.0119 112.327 21.2162C112.519 21.8625 112.519 22.5506 112.327 23.1968C112.115 23.8983 111.733 24.5368 111.216 25.0567L111.237 24.9635C111.696 26.223 112.196 27.5894 112.714 29.0145L112.745 29.1008L112.659 29.1319L111.868 29.3941L110.143 29.9704L110.057 29.998L110.029 29.9117C109.557 28.4832 109.039 27.1512 108.649 25.8434L108.725 25.9021C108.05 25.8461 107.407 25.5929 106.875 25.174C106.394 24.8035 106 24.3325 105.719 23.7938C105.467 23.3161 105.341 22.7814 105.354 22.241C105.37 21.6887 105.508 21.1468 105.758 20.6541C106.007 20.1613 106.363 19.7299 106.8 19.3908C106.979 19.2451 107.181 19.1286 107.396 19.0458C107.202 19.1614 107.013 19.2869 106.831 19.4219C106.351 19.8273 105.984 20.3488 105.764 20.9367C105.576 21.38 105.487 21.8596 105.506 22.341C105.524 22.8225 105.649 23.2938 105.871 23.7213C106.147 24.2395 106.532 24.6916 107 25.0464C107.507 25.4445 108.12 25.6845 108.763 25.7365H108.822L108.839 25.7882C109.218 27.0719 109.739 28.4141 110.219 29.8496L110.105 29.7944L111.83 29.2181L112.617 28.9524L112.562 29.0698C112.048 27.6447 111.551 26.2748 111.096 25.0153V24.9635L111.137 24.9221C111.639 24.4238 112.013 23.8119 112.227 23.1382C112.41 22.52 112.41 21.862 112.227 21.2438C111.851 20.0844 111.075 19.2045 110.233 18.8939C109.86 18.7502 109.462 18.6833 109.063 18.6973C108.765 18.7041 108.469 18.7446 108.18 18.818C107.666 18.9457 107.424 19.063 107.421 19.0458Z" fill="#302638"/>
<path d="M96.7548 118.678L62.2868 118.52C60.2963 118.509 58.3915 117.708 56.9908 116.294C55.5901 114.88 54.808 112.967 54.8162 110.977L55.182 24.5703C55.1861 23.5841 55.3844 22.6084 55.7658 21.699C56.1472 20.7895 56.704 19.9642 57.4046 19.27C58.1051 18.5759 58.9355 18.0267 59.8484 17.6537C60.7614 17.2807 61.7388 17.0913 62.725 17.0963L97.1896 17.255C99.1801 17.2651 101.085 18.0647 102.487 19.4784C103.888 20.892 104.671 22.8041 104.664 24.7946L104.298 111.198C104.294 112.184 104.095 113.16 103.714 114.07C103.333 114.98 102.776 115.806 102.076 116.5C101.375 117.195 100.545 117.745 99.6319 118.119C98.7189 118.492 97.7413 118.683 96.7548 118.678Z" fill="#455A64"/>
<path d="M97.1378 20.2259H90.4575C90.2395 20.23 90.0245 20.2769 89.8246 20.3641C89.6248 20.4512 89.4441 20.5769 89.2929 20.7339C89.1416 20.8909 89.0228 21.0762 88.9432 21.2792C88.8635 21.4821 88.8247 21.6988 88.8288 21.9167V23.1279C88.8329 23.3457 88.794 23.5622 88.7144 23.7649C88.6347 23.9677 88.5158 24.1527 88.3645 24.3094C88.2132 24.4662 88.0325 24.5915 87.8327 24.6783C87.6329 24.7651 87.4179 24.8116 87.2001 24.8152L74.1776 24.7566C73.737 24.7448 73.3191 24.5587 73.0157 24.2391C72.7123 23.9195 72.5481 23.4925 72.5592 23.052V21.8408C72.5704 21.4008 72.4067 20.9744 72.104 20.6549C71.8013 20.3354 71.3843 20.1489 70.9443 20.1362H68.5945L62.7457 20.1086C61.3546 20.1003 60.0168 20.6436 59.0254 21.6195C58.034 22.5955 57.4696 23.9245 57.456 25.3156L57.1109 109.655C57.1077 110.345 57.2405 111.029 57.5017 111.668C57.7628 112.307 58.1473 112.888 58.633 113.378C59.1188 113.868 59.6963 114.258 60.3327 114.525C60.9691 114.792 61.6519 114.931 62.342 114.935L96.7376 115.093C97.4282 115.096 98.1126 114.964 98.7518 114.702C99.3911 114.441 99.9726 114.056 100.463 113.57C100.954 113.084 101.344 112.506 101.611 111.869C101.878 111.232 102.017 110.549 102.02 109.859L102.366 25.5192C102.374 24.1241 101.828 22.7829 100.847 21.7903C99.8672 20.7978 98.5329 20.2351 97.1378 20.2259Z" fill="white"/>
<path d="M92.5106 103.841L66.9347 103.73C66.669 103.73 66.4551 103.441 66.4585 103.089L66.4861 96.3979C66.4861 96.0529 66.7035 95.7561 66.9692 95.7561L92.5451 95.8734C92.6923 95.8989 92.824 95.9802 92.9127 96.1004C93.0015 96.2207 93.0403 96.3705 93.0213 96.5187L92.9971 103.202C92.9971 103.558 92.7763 103.844 92.5106 103.841Z" fill="#007BFF"/>
<path d="M74.7108 99.7603C74.5696 99.7603 74.4338 99.7377 74.3035 99.6924C74.175 99.6454 74.0755 99.5857 74.0049 99.5133L74.0836 99.3585C74.1506 99.4237 74.2402 99.4789 74.3524 99.5241C74.4664 99.5676 74.5859 99.5893 74.7108 99.5893C74.8302 99.5893 74.927 99.5748 75.0012 99.5458C75.0772 99.5151 75.1324 99.4744 75.1668 99.4237C75.203 99.373 75.2211 99.3169 75.2211 99.2554C75.2211 99.1812 75.1994 99.1214 75.156 99.0762C75.1143 99.0309 75.0591 98.9956 74.9904 98.9703C74.9216 98.9432 74.8456 98.9196 74.7623 98.8997C74.6791 98.8798 74.5958 98.859 74.5126 98.8373C74.4293 98.8138 74.3524 98.783 74.2818 98.745C74.213 98.707 74.1569 98.6572 74.1135 98.5957C74.0719 98.5323 74.0511 98.45 74.0511 98.3486C74.0511 98.2545 74.0755 98.1686 74.1244 98.0907C74.175 98.0111 74.252 97.9477 74.3551 97.9007C74.4583 97.8518 74.5904 97.8274 74.7515 97.8274C74.8583 97.8274 74.9641 97.8428 75.0691 97.8735C75.1741 97.9025 75.2646 97.9432 75.3406 97.9957L75.2727 98.1559C75.1913 98.1016 75.1044 98.0618 75.0121 98.0364C74.9216 98.0111 74.8338 97.9984 74.7488 97.9984C74.6347 97.9984 74.5406 98.0138 74.4664 98.0446C74.3922 98.0753 74.337 98.117 74.3008 98.1695C74.2664 98.2201 74.2492 98.278 74.2492 98.3432C74.2492 98.4174 74.2701 98.4771 74.3117 98.5224C74.3551 98.5676 74.4112 98.6029 74.48 98.6283C74.5506 98.6536 74.6275 98.6762 74.7108 98.6961C74.794 98.716 74.8764 98.7377 74.9578 98.7613C75.041 98.7848 75.1171 98.8156 75.1858 98.8536C75.2564 98.8898 75.3125 98.9386 75.3542 99.0002C75.3976 99.0617 75.4193 99.1422 75.4193 99.2418C75.4193 99.3341 75.394 99.4201 75.3433 99.4997C75.2926 99.5775 75.2148 99.6409 75.1098 99.6897C75.0067 99.7368 74.8736 99.7603 74.7108 99.7603ZM75.857 99.744V97.8437H76.0579V99.744H75.857ZM76.6762 99.744V97.8437H76.8418L78.1531 99.4943H78.0662V97.8437H78.2644V99.744H78.0988L76.7902 98.0934H76.8771V99.744H76.6762ZM79.7181 99.7603C79.5733 99.7603 79.4393 99.7368 79.3163 99.6897C79.195 99.6409 79.0891 99.573 78.9986 99.4861C78.91 99.3992 78.8403 99.297 78.7896 99.1793C78.7407 99.0617 78.7163 98.9332 78.7163 98.7939C78.7163 98.6545 78.7407 98.526 78.7896 98.4084C78.8403 98.2907 78.9109 98.1885 79.0014 98.1016C79.0918 98.0147 79.1977 97.9477 79.319 97.9007C79.442 97.8518 79.576 97.8274 79.7208 97.8274C79.8656 97.8274 79.9977 97.85 80.1171 97.8953C80.2384 97.9405 80.3415 98.0093 80.4266 98.1016L80.3017 98.2292C80.2221 98.1495 80.1343 98.0925 80.0384 98.0581C79.9425 98.0238 79.8393 98.0066 79.7289 98.0066C79.6113 98.0066 79.5027 98.0265 79.4031 98.0663C79.3054 98.1043 79.2194 98.1595 79.1452 98.2319C79.0728 98.3025 79.0158 98.3857 78.9742 98.4817C78.9344 98.5758 78.9145 98.6798 78.9145 98.7939C78.9145 98.9061 78.9344 99.0101 78.9742 99.106C79.0158 99.202 79.0728 99.2861 79.1452 99.3585C79.2194 99.4291 79.3054 99.4843 79.4031 99.5241C79.5027 99.5621 79.6104 99.5811 79.7262 99.5811C79.8348 99.5811 79.937 99.5648 80.033 99.5323C80.1307 99.4997 80.2203 99.4445 80.3017 99.3667L80.4157 99.5187C80.3253 99.5983 80.2194 99.659 80.0981 99.7006C79.9769 99.7404 79.8502 99.7603 79.7181 99.7603ZM80.223 99.4943V98.7939H80.4157V99.5187L80.223 99.4943ZM82.4604 99.7603C82.2179 99.7603 82.0269 99.6906 81.8876 99.5513C81.7482 99.4119 81.6785 99.2056 81.6785 98.9323V97.8437H81.8794V98.9242C81.8794 99.1486 81.9301 99.3142 82.0315 99.421C82.1328 99.5277 82.2758 99.5811 82.4604 99.5811C82.6468 99.5811 82.7907 99.5277 82.892 99.421C82.9934 99.3142 83.0441 99.1486 83.0441 98.9242V97.8437H83.2395V98.9323C83.2395 99.2056 83.1698 99.4119 83.0305 99.5513C82.8929 99.6906 82.7029 99.7603 82.4604 99.7603ZM83.8449 99.744V97.8437H84.5562C84.7172 97.8437 84.8557 97.8699 84.9715 97.9224C85.0874 97.9731 85.176 98.0473 85.2376 98.145C85.3009 98.2409 85.3326 98.3577 85.3326 98.4952C85.3326 98.6292 85.3009 98.745 85.2376 98.8427C85.176 98.9386 85.0874 99.0128 84.9715 99.0653C84.8557 99.1178 84.7172 99.1441 84.5562 99.1441H83.9562L84.0458 99.049V99.744H83.8449ZM84.0458 99.0653L83.9562 98.9676H84.5507C84.7408 98.9676 84.8847 98.9269 84.9824 98.8454C85.0819 98.7622 85.1317 98.6454 85.1317 98.4952C85.1317 98.3432 85.0819 98.2256 84.9824 98.1423C84.8847 98.0591 84.7408 98.0174 84.5507 98.0174H83.9562L84.0458 97.9224V99.0653Z" fill="#E8E8E3"/>
<path d="M72.0361 45.0185L63.1613 44.9783L63.1539 46.6069L72.0287 46.6472L72.0361 45.0185Z" fill="#4CAF4F"/>
<path opacity="0.1" d="M72.0361 45.0185L63.1613 44.9783L63.1539 46.6069L72.0287 46.6472L72.0361 45.0185Z" fill="black"/>
<path d="M98.0522 55.0184C98.1219 55.0113 98.1903 54.9951 98.2557 54.97C98.3512 54.9327 98.4343 54.8692 98.4953 54.7868C98.5564 54.7044 98.5929 54.6065 98.6008 54.5042C98.6008 53.9556 98.6008 53.155 98.6008 52.1268C98.6008 51.6126 98.6008 51.0364 98.6008 50.4015C98.6008 50.2462 98.6008 50.084 98.6008 49.9218C98.6233 49.7645 98.589 49.6042 98.5042 49.4698C98.4567 49.4053 98.3949 49.3528 98.3236 49.3163C98.2524 49.2797 98.1736 49.2602 98.0936 49.2593H97.5553H92.5692L63.7083 49.1523C63.6345 49.1511 63.5614 49.1677 63.4953 49.2007C63.4292 49.2338 63.3721 49.2823 63.3288 49.3421C63.2455 49.4771 63.2136 49.6376 63.2391 49.7942C63.2391 50.1392 63.2391 50.4843 63.2391 50.8293C63.2391 51.5195 63.2391 52.2096 63.2391 52.8997C63.2391 53.2448 63.2391 53.5898 63.2391 53.9349C63.2247 54.0956 63.2247 54.2572 63.2391 54.418C63.2572 54.4869 63.2909 54.5507 63.3375 54.6045C63.3842 54.6584 63.4426 54.7008 63.5082 54.7285C63.5762 54.7556 63.649 54.7685 63.7221 54.7665H65.4785L73.1423 54.8079L86.1165 54.8872L94.8638 54.9562L97.2413 54.9838H97.8589C98.0004 54.9838 98.0694 54.9838 98.0694 54.9838H97.8589H97.2413H94.8638H86.1165L73.1423 54.9424L65.4785 54.9114H63.7221C63.6255 54.9153 63.5291 54.8988 63.4392 54.8631C63.3483 54.8243 63.2675 54.7653 63.203 54.6905C63.1384 54.6158 63.0917 54.5273 63.0665 54.4318C63.0466 54.3412 63.0396 54.2482 63.0458 54.1557V53.9004C63.0458 53.5553 63.0458 53.2102 63.0458 52.8652C63.0458 52.1751 63.0458 51.4849 63.0458 50.7948C63.0458 50.4498 63.0458 50.1047 63.0458 49.7596C63.0392 49.6677 63.0392 49.5755 63.0458 49.4836C63.0588 49.3821 63.098 49.2857 63.1597 49.2041C63.2192 49.1208 63.298 49.0531 63.3893 49.0069C63.4807 48.9606 63.5818 48.9371 63.6842 48.9384L92.545 49.0971L97.5311 49.1316H98.0694C98.1643 49.1317 98.2577 49.1546 98.3418 49.1985C98.4259 49.2423 98.4981 49.3058 98.5525 49.3835C98.6498 49.5335 98.689 49.7139 98.6629 49.8908C98.6629 50.0529 98.6629 50.2151 98.6629 50.3704C98.6629 50.9984 98.6629 51.5747 98.6629 52.0957C98.6629 53.1309 98.6388 53.9245 98.6319 54.4766C98.6234 54.5828 98.5848 54.6843 98.5207 54.7693C98.4565 54.8542 98.3694 54.9191 98.2695 54.9562C98.2042 54.9967 98.129 55.0182 98.0522 55.0184Z" fill="#E0E0E0"/>
<path d="M82.0586 50.8845H65.827V52.4062H82.0586V50.8845Z" fill="#4CAF4F"/>
<path opacity="0.2" d="M82.0586 50.8845H65.827V52.4062H82.0586V50.8845Z" fill="white"/>
<path d="M71.9756 59.8765L63.1007 59.8362L63.0933 61.4648L71.9682 61.5051L71.9756 59.8765Z" fill="#4CAF4F"/>
<path opacity="0.1" d="M71.9756 59.8765L63.1007 59.8362L63.0933 61.4648L71.9682 61.5051L71.9756 59.8765Z" fill="black"/>
<path d="M97.8279 69.8766C97.8976 69.868 97.9667 69.8554 98.0349 69.8386C98.1313 69.808 98.22 69.757 98.295 69.6891C98.37 69.6213 98.4296 69.5381 98.4697 69.4453C98.524 69.306 98.5453 69.156 98.5318 69.007C98.5318 68.8414 98.5318 68.662 98.5318 68.4618C98.5318 68.0616 98.5318 67.6061 98.5318 67.0816V64.8905C98.5483 64.7318 98.5132 64.5721 98.4318 64.435C98.3467 64.2944 98.2128 64.19 98.0556 64.1417C97.8838 64.111 97.7088 64.1018 97.5346 64.1141H92.5692L63.8085 64.0071C63.6538 64.0075 63.5044 64.064 63.3883 64.1662C63.2722 64.2684 63.1971 64.4093 63.177 64.5627C63.177 64.8905 63.177 65.2528 63.177 65.5979C63.177 66.288 63.177 66.9781 63.177 67.6682C63.177 68.0133 63.177 68.3583 63.177 68.7034C63.1641 68.8647 63.1711 69.0269 63.1977 69.1865C63.2408 69.3264 63.3295 69.4479 63.4496 69.5315C63.577 69.6124 63.7268 69.6511 63.8775 69.642H64.3571H65.3543L72.9905 69.6799L85.9199 69.7593L94.6361 69.8283L97.0067 69.8559H94.6361H85.9199L72.9836 69.8421L65.3474 69.8145H63.8464C63.6598 69.8255 63.4746 69.7759 63.3185 69.673C63.1615 69.5642 63.0469 69.4046 62.9941 69.221C62.9632 69.0456 62.9539 68.8672 62.9665 68.6896C62.9665 68.3445 62.9665 67.9995 62.9665 67.6544C62.9665 66.9643 62.9665 66.2742 62.9665 65.584C62.9665 65.239 62.9665 64.8939 62.9665 64.5489C62.9917 64.3516 63.0879 64.1702 63.2372 64.0387C63.3864 63.9072 63.5785 63.8347 63.7774 63.8346L92.5381 63.9933L97.5036 64.0313C97.6884 64.0199 97.874 64.0327 98.0556 64.0692C98.2349 64.1278 98.3861 64.2507 98.4801 64.4143C98.5693 64.5663 98.608 64.7427 98.5905 64.9181C98.5905 65.0803 98.5905 65.239 98.5905 65.3977C98.5905 66.0223 98.5905 66.5951 98.5905 67.123C98.5905 67.651 98.5905 68.0961 98.5905 68.5033C98.5905 68.6999 98.5905 68.8828 98.5905 69.0519C98.603 69.2062 98.5782 69.3613 98.518 69.5039C98.4732 69.5991 98.4084 69.6836 98.328 69.7515C98.2477 69.8193 98.1536 69.8691 98.0522 69.8973C97.9768 69.9035 97.9009 69.8965 97.8279 69.8766Z" fill="#E0E0E0"/>
<path d="M71.9087 75.3795L63.0338 75.3392L63.0264 76.9679L71.9013 77.0082L71.9087 75.3795Z" fill="#4CAF4F"/>
<path opacity="0.1" d="M71.9013 77.0082L71.9087 75.3795L67.4712 75.3594L63.0338 75.3392L63.0264 76.9679L71.9013 77.0082Z" fill="#007BFF"/>
<path d="M97.7589 85.3732C97.8286 85.365 97.8978 85.3523 97.9659 85.3353C98.0619 85.3048 98.1502 85.2543 98.2252 85.187C98.3002 85.1198 98.36 85.0374 98.4007 84.9454C98.4548 84.806 98.476 84.656 98.4628 84.5071C98.4628 84.3381 98.4628 84.1621 98.4628 83.9585C98.4628 83.5617 98.4628 83.1027 98.4628 82.5783V80.3871C98.4793 80.2285 98.4442 80.0688 98.3627 79.9316C98.2756 79.7936 98.1423 79.6909 97.9866 79.6418C97.8149 79.6099 97.6399 79.5995 97.4656 79.6107H92.5002L63.7394 79.5038C63.5847 79.5041 63.4354 79.5607 63.3193 79.6628C63.2031 79.765 63.128 79.9059 63.108 80.0593C63.108 80.4044 63.108 80.7494 63.108 81.0945C63.108 81.7846 63.108 82.4747 63.108 83.1648C63.108 83.5099 63.108 83.855 63.108 84.2C63.0951 84.3601 63.1021 84.5212 63.1287 84.6797C63.17 84.8205 63.2591 84.9425 63.3806 85.0247C63.5072 85.1074 63.6576 85.1462 63.8084 85.1351H65.3095L72.9456 85.1766L85.875 85.2559L94.5912 85.3249L96.9618 85.3525H94.5912H85.875L72.9456 85.3146L65.3095 85.2835H63.8084C63.6217 85.2961 63.436 85.2464 63.2805 85.142C63.1235 85.0333 63.0089 84.8736 62.9561 84.69C62.9252 84.5147 62.9159 84.3362 62.9285 84.1586C62.9285 83.8136 62.9285 83.4685 62.9285 83.1234C62.9285 82.4333 62.9285 81.7432 62.9285 81.0531C62.9285 80.708 62.9285 80.363 62.9285 80.0007C62.9529 79.8036 63.0485 79.6223 63.1971 79.4908C63.3458 79.3592 63.5375 79.2866 63.736 79.2864L92.4967 79.4451L97.4621 79.4831C97.647 79.4717 97.8326 79.4845 98.0142 79.521C98.1935 79.5796 98.3447 79.7025 98.4387 79.8661C98.5279 80.0181 98.5666 80.1945 98.5491 80.3699C98.5491 80.532 98.5491 80.6942 98.5491 80.8495C98.5491 81.4741 98.5491 82.0469 98.5491 82.5748C98.5491 83.1027 98.5491 83.5479 98.5491 83.955C98.5491 84.1517 98.5491 84.3346 98.5491 84.5037C98.5623 84.658 98.5374 84.8132 98.4766 84.9557C98.4318 85.0509 98.367 85.1354 98.2866 85.2032C98.2062 85.2711 98.1122 85.3209 98.0108 85.3491C97.9299 85.3768 97.8436 85.385 97.7589 85.3732Z" fill="#E0E0E0"/>
<path d="M81.7122 66.173L65.4807 66.0994L65.4738 67.6211L81.7053 67.6947L81.7122 66.173Z" fill="#4CAF4F"/>
<path opacity="0.2" d="M81.7053 67.6947L81.7122 66.173L73.5964 66.1362L65.4807 66.0994L65.4738 67.6211L81.7053 67.6947Z" fill="#007BFF"/>
<path d="M66.9485 82.5575C66.9384 82.6963 66.8877 82.8291 66.8027 82.9393C66.7178 83.0496 66.6024 83.1325 66.4708 83.1777C66.3391 83.223 66.1971 83.2286 66.0624 83.1939C65.9276 83.1592 65.806 83.0857 65.7126 82.9825C65.6192 82.8793 65.5582 82.7509 65.537 82.6134C65.5159 82.4758 65.5356 82.3351 65.5938 82.2086C65.6519 82.0822 65.7459 81.9756 65.864 81.902C65.9822 81.8285 66.1193 81.7912 66.2584 81.7949C66.4507 81.8056 66.6309 81.8917 66.7601 82.0345C66.8893 82.1772 66.957 82.3652 66.9485 82.5575Z" fill="#4CAF4F"/>
<path d="M69.1465 82.5679C69.1533 82.6652 69.14 82.7629 69.1074 82.8548C69.0749 82.9467 69.0237 83.0309 68.9572 83.1022C68.8907 83.1736 68.8102 83.2304 68.7208 83.2693C68.6314 83.3082 68.5349 83.3283 68.4374 83.3283C68.3399 83.3283 68.2434 83.3082 68.154 83.2693C68.0645 83.2304 67.9841 83.1736 67.9176 83.1022C67.851 83.0309 67.7999 82.9467 67.7674 82.8548C67.7348 82.7629 67.7215 82.6652 67.7283 82.5679C67.7215 82.4707 67.7348 82.373 67.7674 82.2811C67.7999 82.1892 67.851 82.1049 67.9176 82.0336C67.9841 81.9623 68.0645 81.9054 68.154 81.8666C68.2434 81.8277 68.3399 81.8076 68.4374 81.8076C68.5349 81.8076 68.6314 81.8277 68.7208 81.8666C68.8102 81.9054 68.8907 81.9623 68.9572 82.0336C69.0237 82.1049 69.0749 82.1892 69.1074 82.2811C69.14 82.373 69.1533 82.4707 69.1465 82.5679Z" fill="#4CAF4F"/>
<path d="M71.348 82.5783C71.3378 82.7171 71.2871 82.8498 71.2021 82.9601C71.1172 83.0703 71.0018 83.1532 70.8702 83.1985C70.7386 83.2437 70.5966 83.2493 70.4618 83.2146C70.327 83.1799 70.2054 83.1064 70.112 83.0032C70.0186 82.9 69.9576 82.7717 69.9365 82.6341C69.9153 82.4966 69.9351 82.3558 69.9932 82.2294C70.0513 82.1029 70.1453 81.9963 70.2634 81.9228C70.3816 81.8492 70.5187 81.812 70.6578 81.8157C70.8498 81.8273 71.0295 81.9136 71.1585 82.0562C71.2875 82.1987 71.3555 82.3862 71.348 82.5783Z" fill="#4CAF4F"/>
<path d="M73.5461 82.5886C73.5359 82.7274 73.4852 82.8602 73.4003 82.9704C73.3153 83.0807 73.1999 83.1636 73.0683 83.2088C72.9367 83.2541 72.7947 83.2597 72.6599 83.225C72.5251 83.1903 72.4035 83.1168 72.3101 83.0136C72.2167 82.9104 72.1557 82.7821 72.1346 82.6445C72.1135 82.507 72.1332 82.3662 72.1913 82.2398C72.2494 82.1133 72.3434 82.0067 72.4615 81.9332C72.5797 81.8596 72.7168 81.8224 72.856 81.8261C73.0479 81.8376 73.2276 81.924 73.3566 82.0665C73.4856 82.2091 73.5537 82.3965 73.5461 82.5886Z" fill="#4CAF4F"/>
<path d="M75.7441 82.5956C75.7346 82.7346 75.6844 82.8677 75.5998 82.9784C75.5153 83.0892 75.4 83.1726 75.2684 83.2184C75.1368 83.2642 74.9947 83.2702 74.8597 83.2359C74.7246 83.2015 74.6027 83.1283 74.509 83.0252C74.4152 82.9221 74.3539 82.7937 74.3325 82.656C74.3111 82.5183 74.3307 82.3774 74.3888 82.2508C74.4468 82.1241 74.5409 82.0173 74.6591 81.9437C74.7774 81.87 74.9147 81.8327 75.054 81.8364C75.2453 81.848 75.4245 81.9339 75.5534 82.0757C75.6823 82.2175 75.7507 82.404 75.7441 82.5956Z" fill="#4CAF4F"/>
<path d="M77.9456 82.6059C77.9362 82.7442 77.8866 82.8767 77.8028 82.9872C77.7191 83.0976 77.6048 83.1812 77.4742 83.2275C77.3436 83.2739 77.2023 83.281 77.0676 83.2481C76.933 83.2152 76.8109 83.1436 76.7164 83.0422C76.6219 82.9408 76.5591 82.814 76.5358 82.6774C76.5124 82.5407 76.5296 82.4003 76.585 82.2732C76.6405 82.1462 76.7318 82.0382 76.8479 81.9624C76.964 81.8866 77.0997 81.8465 77.2383 81.8468C77.4326 81.854 77.6162 81.9379 77.7488 82.0802C77.8814 82.2225 77.9522 82.4116 77.9456 82.6059Z" fill="#4CAF4F"/>
<path d="M80.1435 82.6163C80.1503 82.7136 80.137 82.8112 80.1045 82.9031C80.0719 82.995 80.0208 83.0793 79.9543 83.1506C79.8878 83.2219 79.8073 83.2788 79.7179 83.3176C79.6284 83.3565 79.532 83.3766 79.4345 83.3766C79.3369 83.3766 79.2405 83.3565 79.151 83.3176C79.0616 83.2788 78.9811 83.2219 78.9146 83.1506C78.8481 83.0793 78.797 82.995 78.7644 82.9031C78.7319 82.8112 78.7186 82.7136 78.7254 82.6163C78.7186 82.519 78.7319 82.4214 78.7644 82.3294C78.797 82.2375 78.8481 82.1533 78.9146 82.082C78.9811 82.0106 79.0616 81.9538 79.151 81.9149C79.2405 81.876 79.3369 81.856 79.4345 81.856C79.532 81.856 79.6284 81.876 79.7179 81.9149C79.8073 81.9538 79.8878 82.0106 79.9543 82.082C80.0208 82.1533 80.0719 82.2375 80.1045 82.3294C80.137 82.4214 80.1503 82.519 80.1435 82.6163Z" fill="#4CAF4F"/>
<path d="M82.3416 82.6266C82.3322 82.7648 82.2826 82.8974 82.1988 83.0078C82.115 83.1182 82.0008 83.2018 81.8702 83.2481C81.7396 83.2945 81.5983 83.3017 81.4636 83.2687C81.329 83.2358 81.2069 83.1642 81.1124 83.0628C81.0179 82.9614 80.9551 82.8346 80.9318 82.698C80.9084 82.5614 80.9255 82.4209 80.981 82.2939C81.0365 82.1668 81.1278 82.0588 81.2439 81.983C81.36 81.9073 81.4957 81.8671 81.6343 81.8674C81.8286 81.8746 82.0122 81.9586 82.1448 82.1009C82.2774 82.2431 82.3482 82.4322 82.3416 82.6266Z" fill="#4CAF4F"/>
<path d="M84.5396 82.6369C84.5301 82.7759 84.4799 82.9091 84.3954 83.0198C84.3108 83.1305 84.1956 83.214 84.064 83.2598C83.9324 83.3055 83.7902 83.3116 83.6552 83.2773C83.5202 83.2429 83.3982 83.1696 83.3045 83.0665C83.2108 82.9634 83.1494 82.8351 83.128 82.6974C83.1067 82.5597 83.1262 82.4188 83.1843 82.2921C83.2424 82.1655 83.3364 82.0587 83.4546 81.985C83.5729 81.9114 83.7102 81.8741 83.8495 81.8778C84.0408 81.8894 84.22 81.9752 84.3489 82.117C84.4778 82.2589 84.5463 82.4454 84.5396 82.6369Z" fill="#4CAF4F"/>
<g opacity="0.2">
<path d="M66.9485 82.5575C66.9384 82.6963 66.8877 82.8291 66.8027 82.9393C66.7178 83.0496 66.6024 83.1325 66.4708 83.1777C66.3391 83.223 66.1971 83.2286 66.0624 83.1939C65.9276 83.1592 65.806 83.0857 65.7126 82.9825C65.6192 82.8793 65.5582 82.7509 65.537 82.6134C65.5159 82.4758 65.5356 82.3351 65.5938 82.2086C65.6519 82.0822 65.7459 81.9756 65.864 81.902C65.9822 81.8285 66.1193 81.7912 66.2584 81.7949C66.4507 81.8056 66.6309 81.8917 66.7601 82.0345C66.8893 82.1772 66.957 82.3652 66.9485 82.5575Z" fill="white"/>
<path d="M69.1465 82.5678C69.1533 82.6651 69.14 82.7627 69.1074 82.8546C69.0749 82.9466 69.0237 83.0308 68.9572 83.1021C68.8907 83.1734 68.8102 83.2303 68.7208 83.2692C68.6314 83.3081 68.5349 83.3281 68.4374 83.3281C68.3399 83.3281 68.2434 83.3081 68.154 83.2692C68.0645 83.2303 67.9841 83.1734 67.9176 83.1021C67.851 83.0308 67.7999 82.9466 67.7674 82.8546C67.7348 82.7627 67.7215 82.6651 67.7283 82.5678C67.7215 82.4705 67.7348 82.3729 67.7674 82.281C67.7999 82.1891 67.851 82.1048 67.9176 82.0335C67.9841 81.9622 68.0645 81.9053 68.154 81.8664C68.2434 81.8276 68.3399 81.8075 68.4374 81.8075C68.5349 81.8075 68.6314 81.8276 68.7208 81.8664C68.8102 81.9053 68.8907 81.9622 68.9572 82.0335C69.0237 82.1048 69.0749 82.1891 69.1074 82.281C69.14 82.3729 69.1533 82.4705 69.1465 82.5678Z" fill="white"/>
<path d="M71.3481 82.5783C71.3379 82.7171 71.2872 82.8498 71.2023 82.9601C71.1173 83.0703 71.0019 83.1532 70.8703 83.1985C70.7387 83.2437 70.5967 83.2493 70.4619 83.2146C70.3271 83.1799 70.2055 83.1064 70.1121 83.0032C70.0187 82.9 69.9577 82.7717 69.9366 82.6341C69.9155 82.4966 69.9352 82.3558 69.9933 82.2294C70.0514 82.1029 70.1454 81.9963 70.2635 81.9228C70.3817 81.8492 70.5188 81.812 70.658 81.8157C70.8499 81.8273 71.0296 81.9136 71.1586 82.0562C71.2876 82.1987 71.3557 82.3862 71.3481 82.5783Z" fill="white"/>
<path d="M73.5461 82.5885C73.5359 82.7273 73.4852 82.8601 73.4003 82.9703C73.3153 83.0806 73.1999 83.1635 73.0683 83.2087C72.9367 83.254 72.7947 83.2596 72.6599 83.2249C72.5251 83.1902 72.4035 83.1167 72.3101 83.0135C72.2167 82.9103 72.1557 82.782 72.1346 82.6444C72.1135 82.5068 72.1332 82.3661 72.1913 82.2396C72.2494 82.1132 72.3434 82.0066 72.4615 81.933C72.5797 81.8595 72.7168 81.8223 72.856 81.8259C73.0479 81.8375 73.2276 81.9238 73.3566 82.0664C73.4856 82.209 73.5537 82.3964 73.5461 82.5885Z" fill="white"/>
<path d="M75.7441 82.5955C75.7346 82.7345 75.6844 82.8676 75.5998 82.9783C75.5153 83.0891 75.4 83.1725 75.2684 83.2183C75.1368 83.264 74.9947 83.2701 74.8597 83.2358C74.7246 83.2014 74.6027 83.1281 74.509 83.025C74.4152 82.9219 74.3539 82.7936 74.3325 82.6559C74.3111 82.5182 74.3307 82.3773 74.3888 82.2506C74.4468 82.124 74.5409 82.0172 74.6591 81.9435C74.7774 81.8699 74.9147 81.8326 75.054 81.8363C75.2453 81.8479 75.4245 81.9337 75.5534 82.0756C75.6823 82.2174 75.7507 82.4039 75.7441 82.5955Z" fill="white"/>
<path d="M77.9455 82.6058C77.9361 82.7441 77.8865 82.8766 77.8027 82.987C77.7189 83.0975 77.6047 83.181 77.4741 83.2274C77.3435 83.2738 77.2021 83.2809 77.0675 83.248C76.9329 83.2151 76.8108 83.1435 76.7163 83.0421C76.6218 82.9407 76.559 82.8139 76.5357 82.6772C76.5123 82.5406 76.5294 82.4002 76.5849 82.2731C76.6403 82.1461 76.7317 82.038 76.8478 81.9623C76.9639 81.8865 77.0995 81.8463 77.2381 81.8467C77.4325 81.8539 77.6161 81.9378 77.7487 82.0801C77.8813 82.2224 77.952 82.4114 77.9455 82.6058Z" fill="white"/>
<path d="M80.1435 82.6162C80.1503 82.7134 80.137 82.8111 80.1045 82.903C80.0719 82.9949 80.0208 83.0791 79.9543 83.1505C79.8878 83.2218 79.8073 83.2786 79.7179 83.3175C79.6284 83.3564 79.532 83.3765 79.4345 83.3765C79.3369 83.3765 79.2405 83.3564 79.151 83.3175C79.0616 83.2786 78.9811 83.2218 78.9146 83.1505C78.8481 83.0791 78.797 82.9949 78.7644 82.903C78.7319 82.8111 78.7186 82.7134 78.7254 82.6162C78.7186 82.5189 78.7319 82.4212 78.7644 82.3293C78.797 82.2374 78.8481 82.1532 78.9146 82.0818C78.9811 82.0105 79.0616 81.9537 79.151 81.9148C79.2405 81.8759 79.3369 81.8558 79.4345 81.8558C79.532 81.8558 79.6284 81.8759 79.7179 81.9148C79.8073 81.9537 79.8878 82.0105 79.9543 82.0818C80.0208 82.1532 80.0719 82.2374 80.1045 82.3293C80.137 82.4212 80.1503 82.5189 80.1435 82.6162Z" fill="white"/>
<path d="M82.3416 82.6266C82.3322 82.7648 82.2826 82.8974 82.1988 83.0078C82.115 83.1182 82.0008 83.2018 81.8702 83.2481C81.7396 83.2945 81.5983 83.3017 81.4636 83.2687C81.329 83.2358 81.2069 83.1642 81.1124 83.0628C81.0179 82.9614 80.9551 82.8346 80.9318 82.698C80.9084 82.5614 80.9255 82.4209 80.981 82.2939C81.0365 82.1668 81.1278 82.0588 81.2439 81.983C81.36 81.9073 81.4957 81.8671 81.6343 81.8674C81.8286 81.8746 82.0122 81.9586 82.1448 82.1009C82.2774 82.2431 82.3482 82.4322 82.3416 82.6266Z" fill="white"/>
<path d="M84.5396 82.6368C84.5301 82.7758 84.4799 82.909 84.3954 83.0197C84.3108 83.1304 84.1956 83.2139 84.064 83.2596C83.9324 83.3054 83.7902 83.3115 83.6552 83.2771C83.5202 83.2428 83.3982 83.1695 83.3045 83.0664C83.2108 82.9633 83.1494 82.8349 83.128 82.6973C83.1067 82.5596 83.1262 82.4187 83.1843 82.292C83.2424 82.1654 83.3364 82.0586 83.4546 81.9849C83.5729 81.9112 83.7102 81.874 83.8495 81.8777C84.0408 81.8893 84.22 81.9751 84.3489 82.1169C84.4778 82.2587 84.5463 82.4453 84.5396 82.6368Z" fill="white"/>
</g>
<path d="M81.4169 32.8241C81.6566 32.7186 81.86 32.5449 82.0017 32.3246C82.1434 32.1043 82.2173 31.8473 82.214 31.5854C82.2229 31.4151 82.1971 31.2448 82.1381 31.0849C82.0791 30.9249 81.9882 30.7787 81.8708 30.655C81.7535 30.5313 81.6122 30.4329 81.4555 30.3656C81.2989 30.2983 81.1302 30.2635 80.9597 30.2635C80.7892 30.2635 80.6205 30.2983 80.4639 30.3656C80.3072 30.4329 80.1659 30.5313 80.0486 30.655C79.9312 30.7787 79.8403 30.9249 79.7813 31.0849C79.7223 31.2448 79.6965 31.4151 79.7054 31.5854C79.7002 31.8499 79.7734 32.11 79.9159 32.333C80.0583 32.5559 80.2637 32.7316 80.5059 32.8379C78.5736 33.1278 78.6599 35.2258 78.6599 35.2258L83.2285 35.2465C83.2285 35.2465 83.3354 33.1105 81.4169 32.8241Z" fill="#4CAF4F"/>
<path opacity="0.1" d="M81.4169 32.8241C81.6566 32.7186 81.86 32.5449 82.0017 32.3246C82.1434 32.1043 82.2173 31.8473 82.214 31.5854C82.2229 31.4151 82.1971 31.2448 82.1381 31.0849C82.0791 30.9249 81.9882 30.7787 81.8708 30.655C81.7535 30.5313 81.6122 30.4329 81.4555 30.3656C81.2989 30.2983 81.1302 30.2635 80.9597 30.2635C80.7892 30.2635 80.6205 30.2983 80.4639 30.3656C80.3072 30.4329 80.1659 30.5313 80.0486 30.655C79.9312 30.7787 79.8403 30.9249 79.7813 31.0849C79.7223 31.2448 79.6965 31.4151 79.7054 31.5854C79.7002 31.8499 79.7734 32.11 79.9159 32.333C80.0583 32.5559 80.2637 32.7316 80.5059 32.8379C78.5736 33.1278 78.6599 35.2258 78.6599 35.2258L83.2285 35.2465C83.2285 35.2465 83.3354 33.1105 81.4169 32.8241Z" fill="#007BFF"/>
<path d="M88.8407 36.5995L72.5575 36.5256L72.5487 38.4718L88.8319 38.5456L88.8407 36.5995Z" fill="#4CAF4F"/>
<path opacity="0.2" d="M88.8407 36.5995L72.5575 36.5256L72.5487 38.4718L88.8319 38.5456L88.8407 36.5995Z" fill="white"/>
<path d="M45.7757 143.185V140.234L40.4859 140.196L40.441 144.658L40.7688 144.682C42.2284 144.775 48.1945 144.913 49.1745 144.61C50.2649 144.272 45.7757 143.185 45.7757 143.185Z" fill="#4CAF4F"/>
<path d="M49.2988 144.334C49.2988 144.382 47.3182 144.423 44.8786 144.423C42.439 144.423 40.4584 144.382 40.4584 144.334C40.4584 144.285 42.439 144.244 44.8786 144.244C47.3182 144.244 49.2988 144.285 49.2988 144.334Z" fill="#302638"/>
<path d="M45.8688 143.788C45.824 143.764 45.8688 143.609 45.9758 143.443C46.0828 143.278 46.2277 143.209 46.2622 143.243C46.2967 143.278 46.2243 143.409 46.1207 143.55C46.0172 143.692 45.9137 143.813 45.8688 143.788Z" fill="#302638"/>
<path d="M46.207 143.982C46.1587 143.982 46.1829 143.788 46.2864 143.606C46.3899 143.423 46.5279 143.312 46.5659 143.34C46.6038 143.368 46.5417 143.523 46.4451 143.685C46.3485 143.847 46.2519 143.999 46.207 143.982Z" fill="#302638"/>
<path d="M42.0525 144.32C42.0318 144.32 41.9524 144.258 41.8386 144.127C41.6996 143.958 41.5447 143.803 41.3762 143.664C41.2104 143.532 41.013 143.445 40.8034 143.412C40.6412 143.392 40.5377 143.412 40.5273 143.392C40.517 143.371 40.6171 143.298 40.8068 143.285C41.0573 143.279 41.3016 143.362 41.497 143.519C41.68 143.668 41.8343 143.85 41.9524 144.054C42.0318 144.206 42.0732 144.306 42.0525 144.32Z" fill="#302638"/>
<path d="M45.8861 143.233C45.9103 143.274 45.8206 143.378 45.6687 143.433C45.5169 143.488 45.3823 143.468 45.3754 143.433C45.3685 143.399 45.4755 143.326 45.6066 143.278C45.7378 143.229 45.8585 143.192 45.8861 143.233Z" fill="#302638"/>
<path d="M45.8033 142.946C45.8033 142.998 45.6653 143.04 45.4859 143.043C45.3064 143.047 45.1649 143.005 45.1684 142.957C45.1718 142.908 45.3133 142.864 45.4859 142.86C45.6584 142.857 45.7964 142.898 45.8033 142.946Z" fill="#302638"/>
<path d="M58.8017 143.185V140.234L53.5119 140.196L53.467 144.613L53.7948 144.637C55.2545 144.73 61.224 144.913 62.2005 144.61C63.2909 144.272 58.8017 143.185 58.8017 143.185Z" fill="#4CAF4F"/>
<path d="M62.3248 144.341C62.3248 144.389 60.3476 144.43 57.9046 144.43C55.4615 144.43 53.4878 144.389 53.4878 144.341C53.4878 144.292 55.465 144.251 57.9046 144.251C60.3441 144.251 62.3248 144.292 62.3248 144.341Z" fill="#302638"/>
<path d="M58.8948 143.788C58.8534 143.764 58.8948 143.609 59.0018 143.443C59.1088 143.278 59.2537 143.209 59.2882 143.243C59.3227 143.278 59.2502 143.409 59.1467 143.55C59.0432 143.692 58.9397 143.813 58.8948 143.788Z" fill="#302638"/>
<path d="M59.2331 143.982C59.1882 143.982 59.2089 143.788 59.3159 143.606C59.4229 143.423 59.5574 143.312 59.5954 143.34C59.6333 143.368 59.5678 143.523 59.4712 143.685C59.3745 143.847 59.2814 143.999 59.2331 143.982Z" fill="#302638"/>
<path d="M55.0785 144.32C55.0578 144.32 54.9819 144.258 54.8646 144.127C54.7256 143.958 54.5707 143.803 54.4022 143.664C54.2364 143.532 54.039 143.445 53.8294 143.412C53.6707 143.392 53.5637 143.412 53.5533 143.392C53.543 143.371 53.6431 143.298 53.8328 143.285C54.0833 143.279 54.3276 143.362 54.523 143.519C54.7069 143.668 54.8614 143.849 54.9784 144.054C55.0578 144.206 55.0992 144.306 55.0785 144.32Z" fill="#302638"/>
<path d="M58.9121 143.233C58.9363 143.274 58.8466 143.378 58.6947 143.433C58.5429 143.488 58.4083 143.468 58.4014 143.433C58.3945 143.399 58.5015 143.326 58.6326 143.278C58.7638 143.229 58.8845 143.192 58.9121 143.233Z" fill="#302638"/>
<path d="M58.8362 142.946C58.8362 142.998 58.6982 143.04 58.5188 143.043C58.3393 143.047 58.2013 143.005 58.2048 142.957C58.2082 142.908 58.3463 142.864 58.5188 142.86C58.6913 142.857 58.8362 142.898 58.8362 142.946Z" fill="#302638"/>
<path d="M78.2907 55.5739C78.1527 55.4324 77.8111 55.5014 77.8111 55.5014C77.8453 55.3028 77.8453 55.0997 77.8111 54.901C77.7489 54.7078 77.3142 54.7457 77.3142 54.7457C77.2941 54.583 77.2941 54.4185 77.3142 54.2558C77.3176 54.2197 77.3099 54.1834 77.292 54.1519C77.2741 54.1204 77.2469 54.0952 77.2141 54.0798C77.0084 53.9959 76.7874 53.9559 76.5654 53.9625C76.2997 53.7727 77.3763 52.2648 77.7766 51.7817C78.1768 51.2986 78.1044 50.9225 77.7489 50.9225C77.504 50.9225 76.2479 52.3717 75.8615 52.8583C75.475 53.3448 74.4502 54.6974 74.4157 53.6174C74.3812 52.5374 73.9464 51.723 73.6738 51.585C73.4012 51.447 73.1113 51.7713 73.2597 52.0715C73.3901 52.4126 73.4714 52.7704 73.5013 53.1343C73.5387 53.4242 73.5259 53.7184 73.4633 54.0039C73.3489 54.5351 73.1931 55.0566 72.9975 55.5635H72.9699C72.9699 55.5635 65.4407 62.7856 64.8955 63.2998C64.4089 63.7622 54.623 62.7511 52.6596 62.5441C51.9925 62.4465 51.3188 62.4003 50.6445 62.4061C49.7922 62.444 49.6404 62.5648 48.7915 62.5752C46.6478 62.599 44.5091 62.787 42.3941 63.1376C41.4364 63.3004 40.5419 63.7231 39.808 64.3596C39.0742 64.9961 38.5293 65.8219 38.2327 66.7469C36.2555 72.9235 31.7766 87.5437 30.9864 95.7561C30.3893 96.8389 29.8503 97.9527 29.3715 99.0928C28.816 100.604 28.9506 100.656 29.1369 100.69C29.6407 100.784 30.2135 98.0715 30.4274 98.7271C30.6414 99.3827 29.3405 101.96 29.8684 102.036C30.5586 102.133 31.1072 99.2757 31.1728 99.048C31.2383 98.8202 31.5799 98.8927 31.5178 99.1067C31.4178 99.4103 30.4481 102.63 31.1245 102.733C31.4971 102.788 31.5385 102.109 31.5385 102.109C31.5385 102.109 32.2286 99.0273 32.5426 99.0894C32.8567 99.1515 32.5219 100.97 32.3632 101.577C32.2045 102.185 32.4253 102.492 32.7497 102.343C32.9705 102.24 33.4985 100.394 33.6434 99.7933C33.7883 99.1929 34.1506 97.5297 34.6372 98.4924C35.1237 99.4552 35.8621 100.014 36.1658 100.028C36.2342 100.02 36.2987 99.9919 36.351 99.947C36.4032 99.9022 36.4409 99.8427 36.4591 99.7763C36.4773 99.7098 36.4751 99.6395 36.453 99.5743C36.4309 99.509 36.3897 99.4519 36.3349 99.4103C36.0737 99.1553 35.8495 98.8649 35.6689 98.5477C35.5079 98.3006 35.3912 98.0273 35.3238 97.7402C35.1848 97.1678 35.1039 96.5828 35.0823 95.9942L35.0271 95.6491C35.8 91.8224 38.0256 80.5907 41.2382 73.4169L42.5563 76.1291L43.1291 78.1374L39.6164 86.8087L54.5989 86.612L52.3629 78.0062L55.0785 69.0347C58.015 69.1002 65.5545 69.2107 66.8105 68.6413C68.3909 67.9512 76.5654 57.627 76.5654 57.627C77.0982 57.213 77.6085 56.7706 78.094 56.302C78.094 56.302 78.5909 55.8844 78.2907 55.5739Z" fill="#FFBE9D"/>
<path d="M38.9573 80.401C39.3921 78.9173 41.6246 71.5813 41.6246 71.5813C41.6246 71.5813 42.7219 77.5612 42.4321 78.2823C42.1655 78.8997 41.8505 79.4951 41.4901 80.0629C38.9573 83.9172 39.2886 85.8461 39.2886 85.8461L54.592 85.3802C54.6265 83.2409 53.3601 78.2651 53.0979 77.4715C52.8356 76.6778 53.7086 74.0795 53.7086 74.0795C53.7086 74.0795 55.4339 72.3232 55.3718 71.4191C55.3391 70.607 55.2386 69.7991 55.0716 69.0037L64.3882 69.3487L64.0949 63.0341L50.7135 61.6953C50.2477 63.01 46.0345 62.3647 46.0345 62.3647C41.4866 62.5166 41.2037 63.3516 39.3127 64.8216C37.4218 66.2915 34.2921 78.9069 34.2921 78.9069L38.9573 80.401Z" fill="#007BFF"/>
<path d="M48.0048 78.9068C47.7396 78.9542 47.4695 78.9681 47.2008 78.9482C46.7005 78.9482 46.0138 78.9137 45.2582 78.8378C44.5025 78.7619 43.8193 78.6549 43.3327 78.5583C43.0645 78.5237 42.8014 78.4565 42.5494 78.3582C42.8192 78.3583 43.0884 78.3837 43.3534 78.4341C43.8434 78.4962 44.5232 78.5824 45.2754 78.6584C46.0276 78.7343 46.7109 78.786 47.2043 78.8205C47.4733 78.8239 47.7413 78.8528 48.0048 78.9068Z" fill="#302638"/>
<path d="M49.0538 77.606C48.7885 77.7359 48.5079 77.8321 48.2187 77.8924C46.8421 78.2541 45.4217 78.4225 43.9986 78.3927C43.7042 78.4023 43.4097 78.3744 43.1222 78.3099C43.4128 78.2732 43.7058 78.2582 43.9986 78.265C44.5404 78.2478 45.2857 78.2098 46.107 78.1132C46.9282 78.0166 47.6597 77.8786 48.1773 77.7681C48.4648 77.6914 48.7578 77.6371 49.0538 77.606Z" fill="#302638"/>
<path d="M54.202 71.8021C54.195 72.0652 54.1592 72.3267 54.095 72.582C54.0053 73.0616 53.8673 73.7172 53.6913 74.4349C53.5153 75.1527 53.3463 75.8152 53.1944 76.2637C53.1334 76.5205 53.0431 76.7694 52.9253 77.0056C52.9445 76.7434 52.9931 76.4841 53.0702 76.2327C53.2013 75.6944 53.3497 75.0733 53.5153 74.3935C53.681 73.7138 53.8397 73.0926 53.9708 72.5544C54.0175 72.2953 54.0952 72.0427 54.202 71.8021Z" fill="#302638"/>
<path d="M39.1195 79.5211C38.3212 79.3978 37.5334 79.2144 36.7627 78.9724C35.9752 78.7883 35.2025 78.5461 34.4508 78.2478C35.2487 78.3731 36.0364 78.5565 36.8076 78.7964C37.5952 78.9799 38.368 79.2221 39.1195 79.5211Z" fill="#302638"/>
<path d="M55.2372 68.9277C55.107 68.9501 54.974 68.9501 54.8438 68.9277C54.4834 68.8907 54.1295 68.806 53.7914 68.6758C53.2269 68.4637 52.713 68.1359 52.2828 67.7133C51.8525 67.2908 51.5154 66.783 51.2931 66.2224C51.0474 65.6058 50.9425 64.9421 50.986 64.2798C51.0014 63.7334 51.1648 63.2015 51.4588 62.7408C51.6655 62.4304 51.9744 62.2021 52.3318 62.0955C52.4273 62.0692 52.526 62.0564 52.6251 62.0576C52.6941 62.0576 52.7286 62.0576 52.7286 62.0576C52.7286 62.0576 52.5837 62.0576 52.3525 62.1507C52.0246 62.2719 51.7465 62.4989 51.5623 62.796C51.093 63.5344 50.9619 64.8836 51.4622 66.1431C51.6951 66.7369 52.0597 67.2702 52.5285 67.7027C52.9126 68.0567 53.355 68.3415 53.8362 68.5447C54.2878 68.7232 54.7576 68.8516 55.2372 68.9277Z" fill="#302638"/>
<path d="M63.2806 69.2244C63.1943 68.1663 63.1667 67.1042 63.1978 66.043C63.1708 64.9827 63.203 63.9217 63.2944 62.865C63.3808 63.922 63.4085 64.9829 63.3772 66.043C63.4063 67.1044 63.374 68.1667 63.2806 69.2244Z" fill="#302638"/>
<path d="M50.6237 62.0817C50.6617 61.3122 50.741 60.4427 50.741 60.4427C50.741 60.4427 52.6458 60.2322 52.7596 58.2653C52.8735 56.2985 52.7596 51.761 52.7596 51.761L49.309 49.9943L45.4789 53.0066L46.0689 62.8408L49.5816 63.0651C49.8501 63.0726 50.1106 62.9732 50.306 62.7889C50.5013 62.6045 50.6156 62.3502 50.6237 62.0817Z" fill="#FFBE9D"/>
<path d="M50.9654 56.7092C50.9654 56.7092 50.9654 56.7471 50.9343 56.792C50.9087 56.8245 50.8755 56.8503 50.8376 56.8672C50.7997 56.884 50.7583 56.8914 50.7169 56.8886C50.4961 56.8886 50.2822 56.6333 50.2063 56.3365C50.1702 56.1927 50.1702 56.0421 50.2063 55.8983C50.2133 55.8355 50.236 55.7755 50.2721 55.7237C50.3083 55.6718 50.3568 55.6299 50.4133 55.6015C50.4597 55.5824 50.5118 55.5824 50.5582 55.6015C50.5926 55.6186 50.6205 55.6465 50.6376 55.6809C50.6617 55.7396 50.6376 55.7775 50.6376 55.7741C50.6376 55.7706 50.6376 55.7396 50.6031 55.7051C50.585 55.6803 50.5585 55.6632 50.5286 55.6568C50.4987 55.6504 50.4674 55.6553 50.4409 55.6705C50.3986 55.6961 50.3634 55.732 50.3387 55.7749C50.3139 55.8177 50.3004 55.8661 50.2994 55.9155C50.2704 56.0439 50.2704 56.1771 50.2994 56.3055C50.3684 56.5746 50.5548 56.792 50.7204 56.8127C50.7528 56.8171 50.7858 56.8148 50.8172 56.8059C50.8487 56.797 50.878 56.7817 50.9033 56.7609C50.9447 56.7333 50.9585 56.7057 50.9654 56.7092Z" fill="#EB996E"/>
<path d="M53.9433 50.6982C53.6776 49.7942 52.7149 49.3456 51.8384 49.0971C50.5031 48.7176 49.0607 48.5519 47.7564 49.0316C46.4521 49.5112 44.8855 50.3532 44.8855 51.7921C44.116 51.7299 43.6743 52.4028 43.3707 53.2379C43.1765 53.7466 43.0602 54.2817 43.0256 54.8251C42.929 56.7092 42.401 59.3109 41.1795 60.6912C40.4894 61.4606 39.5336 61.992 39.1402 62.9513C38.7952 63.7829 38.9746 64.7698 38.6537 65.6117C38.3673 66.3536 37.7358 66.8815 37.2735 67.5268C36.8024 68.2588 36.5252 69.0985 36.4678 69.9671C36.4105 70.8357 36.5749 71.7046 36.9457 72.4922C37.3191 73.2596 37.8448 73.9429 38.4908 74.5005C39.1369 75.0582 39.8897 75.4785 40.7034 75.7358C42.3151 76.2261 44.0339 76.2429 45.655 75.7841C46.8716 75.4932 48.0065 74.9304 48.9744 74.1381C49.9649 73.3293 50.6451 72.2029 50.8999 70.9498C51.1449 69.5419 50.7515 68.1099 50.4582 66.709C49.5403 62.2819 49.8026 62.0507 50.962 57.941C50.9896 57.8686 51.0034 57.7927 51.0241 57.7202C51.0448 57.6477 51.0552 57.6132 51.069 57.558C51.1019 57.3956 51.1192 57.2303 51.1207 57.0646C50.9514 57.1275 50.7676 57.1409 50.5909 57.103C50.4143 57.0651 50.2521 56.9775 50.1235 56.8506C49.9946 56.7153 49.9047 56.5477 49.8634 56.3654C49.8221 56.1832 49.8309 55.9931 49.8889 55.8155C49.9703 55.6212 50.0916 55.4461 50.2449 55.3017C50.3983 55.1572 50.5803 55.0466 50.7791 54.977C51.1621 54.8182 51.5727 54.7354 51.9489 54.5594C52.7459 54.1799 53.298 53.3931 53.6742 52.5684C53.9834 51.9969 54.0788 51.3338 53.9433 50.6982Z" fill="#302638"/>
<path d="M51.1034 56.8024C51.1763 56.9101 51.2365 57.0259 51.2828 57.1474C51.3863 57.3648 51.5244 57.6719 51.6762 58.0273L51.7038 58.0929H51.6313L51.2863 58.1239C51.0482 58.1239 50.8481 58.1688 50.6134 58.1654C50.593 58.1608 50.574 58.1511 50.5584 58.1372C50.5427 58.1233 50.5307 58.1057 50.5237 58.086C50.5134 58.0546 50.5134 58.0208 50.5237 57.9894C50.5317 57.9429 50.542 57.8968 50.5548 57.8513L50.6169 57.6064C50.6481 57.4429 50.6967 57.2833 50.7618 57.1302C50.7554 57.2968 50.7311 57.4622 50.6893 57.6236L50.641 57.8686C50.6238 57.9514 50.5927 58.0791 50.641 58.0687C50.8135 58.0687 51.0585 58.0308 51.2863 58.017L51.6313 57.9859L51.5865 58.0618C51.4381 57.7168 51.3139 57.3924 51.2414 57.1681C51.1779 57.0536 51.1314 56.9304 51.1034 56.8024Z" fill="#4CAF4F"/>
<path d="M39.2885 85.846L54.5919 85.3801L61.2516 111.377L60.0266 141.197H51.935L52.9253 112.012L47.0075 93.9135L47.9185 142.353L39.7406 142.474L38.8814 96.9431C38.8434 95.6767 38.4293 92.8231 38.5846 91.567L39.2885 85.846Z" fill="#302638"/>
<path d="M49.0434 94.2827C48.7929 94.2985 48.5414 94.2834 48.2946 94.2378C47.8322 94.1826 47.2008 94.086 46.5072 93.948C45.8136 93.8099 45.1925 93.6512 44.744 93.5236C44.5042 93.4708 44.2722 93.3873 44.0538 93.2751C44.0538 93.2234 45.1787 93.4925 46.559 93.772C47.9392 94.0515 49.0503 94.2309 49.0434 94.2827Z" fill="#455A64"/>
<path d="M59.9439 139.562C59.9439 139.61 58.1116 139.651 55.8515 139.651C53.5913 139.651 51.7556 139.61 51.7556 139.562C51.7556 139.513 53.5879 139.472 55.8515 139.472C58.1151 139.472 59.9439 139.51 59.9439 139.562Z" fill="#007BFF"/>
<path d="M47.846 141.094C47.846 141.145 46.0655 141.183 43.8709 141.183C41.6764 141.183 39.8993 141.145 39.8993 141.094C39.8993 141.042 41.6798 141.004 43.8709 141.004C46.0621 141.004 47.846 141.045 47.846 141.094Z" fill="#455A64"/>
<path d="M46.7902 140.969C46.7419 140.969 46.528 130.386 46.3106 117.333C46.0932 104.279 45.9655 93.6892 46.0104 93.6892C46.0553 93.6892 46.2761 104.269 46.49 117.329C46.704 130.39 46.842 140.969 46.7902 140.969Z" fill="#455A64"/>
<path d="M58.8569 139.561C58.8531 139.514 58.8531 139.467 58.8569 139.42V139.006C58.8569 138.633 58.8845 138.098 58.9052 137.419C58.9535 136.038 59.0225 134.034 59.1088 131.577C59.2951 126.635 59.5573 119.824 59.8437 112.305C59.8437 112.233 59.8437 112.164 59.8437 112.102V112.126C58.0322 104.879 56.3931 98.3026 55.2027 93.5442L53.8224 87.9163C53.6637 87.2572 53.5429 86.7431 53.4567 86.3842C53.4153 86.2152 53.3877 86.084 53.3635 85.984C53.3501 85.9391 53.342 85.8927 53.3394 85.8459C53.3573 85.8894 53.3711 85.9345 53.3808 85.9805C53.4084 86.0771 53.4429 86.2083 53.4912 86.3739C53.5843 86.7189 53.7189 87.2434 53.8914 87.899C54.2365 89.231 54.723 91.1495 55.3303 93.5132C56.5312 98.2681 58.1874 104.828 60.0232 112.084V112.108C60.0232 112.171 60.0232 112.243 60.0232 112.312C59.7161 119.831 59.4366 126.639 59.233 131.58C59.126 134.04 59.0363 136.031 58.9742 137.419C58.9397 138.109 58.9121 138.633 58.8948 139.006C58.8948 139.182 58.8741 139.32 58.8707 139.42C58.8712 139.467 58.8665 139.515 58.8569 139.561Z" fill="#455A64"/>
<path d="M56.2172 111.494C55.636 111.685 55.0373 111.818 54.4298 111.891C53.6845 112.019 53.0496 112.108 52.7632 112.122V112.053C52.8564 112.081 52.9047 112.098 52.9047 112.112C52.9047 112.126 52.846 112.112 52.7494 112.112H52.5424L52.7494 112.05C53.0185 111.97 53.6535 111.839 54.3988 111.705C54.9966 111.575 55.6057 111.505 56.2172 111.494Z" fill="#455A64"/>
<path d="M56.0757 112.485C55.5375 112.509 54.9981 112.485 54.4643 112.412C53.9253 112.401 53.3883 112.342 52.8597 112.236C53.9381 112.148 55.0236 112.232 56.0757 112.485Z" fill="#455A64"/>
<path opacity="0.2" d="M39.223 86.3946C39.4043 86.6273 39.6325 86.8192 39.893 86.9578C40.1534 87.0963 40.4401 87.1784 40.7344 87.1986C41.3507 87.2716 41.9742 87.26 42.5874 87.1641C46.5383 86.7259 50.7239 86.3221 54.592 85.3801C49.5852 85.6596 44.2954 85.5665 39.2886 85.846L39.2368 86.2738" fill="black"/>
<g opacity="0.2">
<path d="M44.3816 93.4512L47.2042 104.403L47.0075 93.9136L44.3816 93.4512Z" fill="black"/>
</g>
</svg>
